<svg xmlns="http://www.w3.org/2000/svg" width="128" height="128" viewBox="0 0 128 128" role="img" aria-label="C star file">
  <defs>
    <linearGradient id="g" x1="20" y1="12" x2="108" y2="116" gradientUnits="userSpaceOnUse">
      <stop offset="0" stop-color="#22d3ee"/>
      <stop offset="0.52" stop-color="#3b82f6"/>
      <stop offset="1" stop-color="#14b8a6"/>
    </linearGradient>
  </defs>
  <rect x="12" y="8" width="104" height="112" rx="16" fill="#0f172a"/>
  <path d="M36 8h48l32 32v72a8 8 0 0 1-8 8H20a8 8 0 0 1-8-8V16a8 8 0 0 1 8-8h16z" fill="url(#g)"/>
  <path d="M84 8v28a8 8 0 0 0 8 8h24L84 8z" fill="#bae6fd" opacity=".9"/>
  <path d="M71.5 80.5c-5.7 5.8-13.1 8.7-22.2 8.7-8.6 0-15.7-2.7-21.2-8.2-5.6-5.4-8.4-12.5-8.4-21.1 0-8.5 2.8-15.5 8.4-21 5.6-5.5 12.7-8.3 21.2-8.3 9 0 16.3 2.9 21.8 8.6l-8.8 9.1c-3.2-3.4-7.3-5.1-12.5-5.1-4.6 0-8.4 1.6-11.4 4.7-2.9 3.1-4.4 7.1-4.4 12 0 5 1.5 9.1 4.5 12.2 3 3.1 6.8 4.6 11.4 4.6 5.2 0 9.5-1.9 12.9-5.6l8.7 8.4z" fill="#f8fafc"/>
  <path d="M94 55l3.2 9.8h10.3l-8.3 6 3.2 9.8-8.4-6.1-8.3 6.1 3.2-9.8-8.3-6h10.3L94 55z" fill="#fef08a"/>
</svg>
